<?xml version="1.0" encoding="utf-8"?>
<!-- Generator: Adobe Illustrator 15.0.0, SVG Export Plug-In . SVG Version: 6.00 Build 0)  -->
<!DOCTYPE svg PUBLIC "-//W3C//DTD SVG 1.1//EN" "http://www.w3.org/Graphics/SVG/1.1/DTD/svg11.dtd">
<svg version="1.1" id="Layer_1" xmlns="http://www.w3.org/2000/svg" xmlns:xlink="http://www.w3.org/1999/xlink" x="0px" y="0px"
	 width="1260px" height="400.118px" viewBox="0 0 1260 400.118" enable-background="new 0 0 1260 400.118" xml:space="preserve">
<g>
	<path fill="#FFFFFF" d="M195.579,0h-6.442l-69.454,202.879c1.703-0.162,3.425-0.105,5.152,0.072c1.434-0.053,2.808-0.1,4.167-0.018
		c1.243-0.024,2.484-0.069,3.726-0.129l19.309-56.136h0.083c0.052-0.115,0.085-0.253,0.14-0.361
		c0.169-0.336,0.354-0.661,0.536-0.988c0.063-0.188,0.125-0.375,0.19-0.563c0.106-0.299,0.247-0.571,0.375-0.854
		c0.394-1.482,1.044-3.785,1.279-4.61c0.611-2.139,1.222-4.3,1.952-6.373h-0.001l28.879-84.182l25.502,76.393
		c0.867,1.812,1.536,3.81,1.989,5.958l0.381,1.14c1.903,3.706,2.914,8.697,4.273,12.713c0.036,0.07,0.057,0.148,0.095,0.218
		c-0.02-0.035-0.039-0.069-0.057-0.104c0.056,0.163,0.105,0.344,0.163,0.503c0.058,0.139,0.124,0.276,0.179,0.415
		c0.101,0.221,0.184,0.464,0.273,0.695h0.08l23.659,71.042h26.436L195.579,0z"/>
</g>
<g>
	<path fill="#FFFFFF" d="M428.309,191.382l-34.793,149.58l-47.718-143.314l-34.823,148.881l-52.42-158.109l-26.064,1.952
		l69.814,209.747l8.875-0.664l31.466-135.317l43.288,129.72l7.875-0.589l47.118-202.274
		C436.731,191.348,432.515,191.489,428.309,191.382z"/>
</g>
<rect y="190.329" fill="#FFFFFF" width="132.712" height="12.382"/>
<rect x="428.712" y="190.83" fill="#FFFFFF" width="831.288" height="11.604"/>
</svg>
